<svg xmlns="http://www.w3.org/2000/svg" width="24" height="16.859" viewBox="0 0 24 16.859">
  <path id="icon-group" d="M1.9,25.81V23.258a3.162,3.162,0,0,1,.489-1.724A2.974,2.974,0,0,1,3.746,20.38a21.525,21.525,0,0,1,3.57-1.249,14.007,14.007,0,0,1,3.271-.38,13.836,13.836,0,0,1,3.258.38A21.708,21.708,0,0,1,17.4,20.38a3.056,3.056,0,0,1,1.371,1.154,3.1,3.1,0,0,1,.5,1.724V25.81Zm8.688-8.715a3.906,3.906,0,0,1-4.072-4.072A3.906,3.906,0,0,1,10.588,8.95a3.906,3.906,0,0,1,4.072,4.072,3.906,3.906,0,0,1-4.072,4.072Zm9.774-4.072a3.906,3.906,0,0,1-4.072,4.072,6.071,6.071,0,0,1-.665-.041,2.872,2.872,0,0,1-.665-.149,4.456,4.456,0,0,0,.991-1.67,6.8,6.8,0,0,0,.339-2.213,6.32,6.32,0,0,0-.339-2.158,5.772,5.772,0,0,0-.991-1.724A5.729,5.729,0,0,1,15.624,9a4.575,4.575,0,0,1,.665-.054,3.906,3.906,0,0,1,4.072,4.072ZM20.9,25.81V23.258a4.394,4.394,0,0,0-.869-2.81,6.359,6.359,0,0,0-2.281-1.778,26.925,26.925,0,0,1,3.529.638,12.44,12.44,0,0,1,2.688.964,4.2,4.2,0,0,1,1.412,1.276,2.976,2.976,0,0,1,.516,1.71V25.81Z" transform="translate(-1.9 -8.95)" fill="#535353"/>
</svg>
