<svg xmlns="http://www.w3.org/2000/svg" width="35.651" height="35" viewBox="0 0 35.651 35">
  <path id="Icon_simple-microsoftexcel" data-name="Icon simple-microsoftexcel" d="M34.987,4.611H23.044v2.21h3.52v3.5h-3.52v1.114h3.52v3.5h-3.52v1.145h3.52V19.39h-3.52v1.327h3.52v3.318h-3.52v1.326h3.52V28.7h-3.52v2.435H34.987c.189-.056.346-.279.472-.665a3.257,3.257,0,0,0,.192-.945V5.015c0-.19-.065-.3-.192-.345A1.634,1.634,0,0,0,34.987,4.611ZM33.437,28.7H27.708V25.361h5.729V28.7Zm0-4.661H27.708v-3.32h5.729Zm0-4.646H27.708v-3.3h5.729v3.3Zm0-4.456H27.708v-3.5h5.729v3.5h0Zm0-4.633H27.708V6.823h5.729V10.3ZM0,4.06V31.691l21.034,3.638v-35L0,4.072Zm12.467,20.9q-.12-.325-1.126-2.767c-.667-1.628-1.07-2.576-1.187-2.846h-.037l-2.256,5.37-3.015-.2L8.422,17.83,5.147,11.145l3.075-.162,2.032,5.23h.04l2.3-5.468,3.177-.2-3.783,7.234,3.9,7.38-3.415-.2Z" transform="translate(0 -0.328)" fill="#535353"/>
</svg>
