<svg xmlns="http://www.w3.org/2000/svg" width="13.792" height="18.389" viewBox="0 0 13.792 18.389">
  <g id="Group_524" data-name="Group 524" transform="translate(-188.1 -750.471)">
    <path id="Icon_awesome-file" data-name="Icon awesome-file" d="M8.045,4.884V0H.862A.86.86,0,0,0,0,.862V17.527a.86.86,0,0,0,.862.862H12.93a.86.86,0,0,0,.862-.862V5.746H8.907A.865.865,0,0,1,8.045,4.884Zm5.746-.506V4.6h-4.6V0h.219a.861.861,0,0,1,.611.251l3.516,3.52A.859.859,0,0,1,13.792,4.378Z" transform="translate(188.1 750.471)" fill="#0802c7"/>
    <g id="Group_521" data-name="Group 521" transform="translate(-4.254 -13)">
      <text id="DOC" transform="translate(199.354 777)" fill="#fff7f7" font-size="5" font-family="OpenSans-Bold, Open Sans" font-weight="700"><tspan x="-5.433" y="0">DOC</tspan></text>
    </g>
  </g>
</svg>
