<svg id="Component_20_1" data-name="Component 20 – 1" xmlns="http://www.w3.org/2000/svg" width="114.431" height="21.951" viewBox="0 0 114.431 21.951">
  <path id="Path_9351" data-name="Path 9351" d="M11.667,0H8.95V-1.98A4.944,4.944,0,0,1,7.363-.26,3.475,3.475,0,0,1,5.484.317,3.977,3.977,0,0,1,2.253-1.533,8.728,8.728,0,0,1,.876-6.818a8.525,8.525,0,0,1,1.344-5.221A4.029,4.029,0,0,1,5.528-13.8a3.375,3.375,0,0,1,1.73.47,4.866,4.866,0,0,1,1.477,1.409v-6.69h2.933ZM3.872-7.034A8.94,8.94,0,0,0,4.182-4.3a2.837,2.837,0,0,0,.886,1.35,2.049,2.049,0,0,0,1.3.452A2.02,2.02,0,0,0,8.039-3.545,5.639,5.639,0,0,0,8.748-6.69a6.2,6.2,0,0,0-.69-3.355A2.053,2.053,0,0,0,6.3-11.07a2.068,2.068,0,0,0-1.722,1.006A5.275,5.275,0,0,0,3.872-7.034Zm10,.1a8.188,8.188,0,0,1,.787-3.612,5.8,5.8,0,0,1,2.057-2.442,5.179,5.179,0,0,1,2.856-.814,4.9,4.9,0,0,1,4.189,2.092,8.085,8.085,0,0,1,1.523,4.89A8.7,8.7,0,0,1,24.5-3.053,5.97,5.97,0,0,1,22.414-.528a5.043,5.043,0,0,1-2.825.846A5.173,5.173,0,0,1,15.5-1.565,7.972,7.972,0,0,1,13.876-6.932Zm3,.191a5.057,5.057,0,0,0,.8,3.1A2.371,2.371,0,0,0,19.608-2.59a2.314,2.314,0,0,0,1.9-1.057,5.173,5.173,0,0,0,.789-3.12,5.013,5.013,0,0,0-.8-3.069,2.357,2.357,0,0,0-1.921-1.057,2.331,2.331,0,0,0-1.9,1.057A5.092,5.092,0,0,0,16.872-6.741ZM37.235-9.509l-2.882.635q-.319-2.12-2-2.12a2.061,2.061,0,0,0-1.749.917,5.439,5.439,0,0,0-.664,3.094,6.427,6.427,0,0,0,.662,3.4,2.034,2.034,0,0,0,1.77.993,1.794,1.794,0,0,0,1.362-.565,3.82,3.82,0,0,0,.764-2l2.882.6Q36.486.317,32.259.317a4.421,4.421,0,0,1-4.012-2.06A9.065,9.065,0,0,1,26.939-6.7a8.181,8.181,0,0,1,1.481-5.284A4.772,4.772,0,0,1,32.3-13.8a4.77,4.77,0,0,1,3.171,1.028A5.906,5.906,0,0,1,37.235-9.509ZM46.693,0V-2.017A4.62,4.62,0,0,1,45.1-.3a3.837,3.837,0,0,1-2.066.619,3.45,3.45,0,0,1-1.952-.572,3.425,3.425,0,0,1-1.286-1.626,8.56,8.56,0,0,1-.425-3.062v-8.539H42.3v6.2a25.016,25.016,0,0,0,.133,3.371,1.859,1.859,0,0,0,.589,1.111,1.627,1.627,0,0,0,1.1.394,2.077,2.077,0,0,0,1.354-.514,2.407,2.407,0,0,0,.816-1.32,19.375,19.375,0,0,0,.2-3.548v-5.687h2.933V0Z" transform="translate(17.595 20)" fill="#ef6c00"/>
  <g id="Group_10617" data-name="Group 10617" transform="translate(-148.07 -28.178) rotate(-3)">
    <path id="Icon_material-insert-drive-file" data-name="Icon material-insert-drive-file" d="M1.3,0A1.392,1.392,0,0,0,.007,1.47L0,13.228A1.392,1.392,0,0,0,1.294,14.7H9.1a1.4,1.4,0,0,0,1.3-1.47V4.409L6.5,0ZM5.852,5.144V1.1L9.429,5.144Z" transform="translate(150.395 36.803) rotate(16)" fill="#ef6c00"/>
    <path id="Icon_material-insert-drive-file-2" data-name="Icon material-insert-drive-file" d="M1.3,0A1.392,1.392,0,0,0,.007,1.47L0,13.228A1.392,1.392,0,0,0,1.294,14.7H9.1a1.4,1.4,0,0,0,1.3-1.47V4.409L6.5,0ZM5.852,5.144V1.1L9.429,5.144Z" transform="translate(152.384 38.669) rotate(22)" fill="#e8e7e6"/>
    <path id="Icon_material-insert-drive-file-3" data-name="Icon material-insert-drive-file" d="M1.3,0A1.392,1.392,0,0,0,.007,1.47L0,13.228A1.392,1.392,0,0,0,1.294,14.7H9.1a1.4,1.4,0,0,0,1.3-1.47V4.409L6.5,0ZM5.852,5.144V1.1L9.429,5.144Z" transform="translate(154.851 39.936) rotate(30)" fill="#535353"/>
  </g>
  <path id="Path_9350" data-name="Path 9350" d="M54.755,0V-13.482h1.676V-11.6a4.261,4.261,0,0,1,1.432-1.616,3.443,3.443,0,0,1,1.914-.568,3.2,3.2,0,0,1,1.971.6,3.257,3.257,0,0,1,1.147,1.749A5.125,5.125,0,0,1,64.417-13.2a3.3,3.3,0,0,1,1.9-.587,3.12,3.12,0,0,1,2.51,1.079,5.289,5.289,0,0,1,.917,3.453V0H67.882V-8.5a6.954,6.954,0,0,0-.211-2.052,1.842,1.842,0,0,0-.683-.934,1.8,1.8,0,0,0-1.059-.33,2.417,2.417,0,0,0-1.978.959,4.824,4.824,0,0,0-.766,3.019V0H61.318V-8.769a4.069,4.069,0,0,0-.514-2.364,1.671,1.671,0,0,0-1.416-.686,2.361,2.361,0,0,0-2.025,1.036A6.88,6.88,0,0,0,56.621-7V0ZM79.7-1.663A6.988,6.988,0,0,1,77.746-.191a4.753,4.753,0,0,1-2.107.5A3.7,3.7,0,0,1,72.884-.736a3.818,3.818,0,0,1-1.028-2.806,4.318,4.318,0,0,1,.482-2.069,3.594,3.594,0,0,1,1.32-1.409A6.932,6.932,0,0,1,76.2-7.77a14.184,14.184,0,0,0,3.352-.8l.013-.584a2.945,2.945,0,0,0-.5-1.942,2.677,2.677,0,0,0-2.146-.812,2.991,2.991,0,0,0-1.955.542,3.542,3.542,0,0,0-.952,2.035l-1.841-.3A5.119,5.119,0,0,1,73.766-12.8a5.264,5.264,0,0,1,3.434-.99,4.913,4.913,0,0,1,2.729.654,2.814,2.814,0,0,1,1.25,1.619A11.524,11.524,0,0,1,81.44-8.7v3.047a38.869,38.869,0,0,0,.121,4.031A6.014,6.014,0,0,0,82.037,0H80.082A5.662,5.662,0,0,1,79.7-1.663Zm-.152-5.1a11.861,11.861,0,0,1-3.06.863,5.751,5.751,0,0,0-1.65.463,1.825,1.825,0,0,0-.73.736,2.253,2.253,0,0,0-.26,1.1,2.048,2.048,0,0,0,.6,1.542,2.273,2.273,0,0,0,1.65.578,3.326,3.326,0,0,0,1.822-.521A3.244,3.244,0,0,0,79.143-3.4a6.191,6.191,0,0,0,.406-2.533Zm8.976,4.723.254,2.019a5.56,5.56,0,0,1-1.4.2,2.853,2.853,0,0,1-1.574-.387,1.964,1.964,0,0,1-.819-1.06,10.294,10.294,0,0,1-.222-2.679v-7.757H83.4v-1.777h1.371v-3.339l1.866-1.371v4.71h1.892v1.777H86.633v7.884A3.722,3.722,0,0,0,86.8-2.412a.925.925,0,0,0,.9.457A5,5,0,0,0,88.524-2.044Zm9.318-2.3,1.93.292A5.857,5.857,0,0,1,98.027-.793,4.6,4.6,0,0,1,94.9.3a4.67,4.67,0,0,1-3.8-1.784,7.972,7.972,0,0,1-1.454-5.148,8.37,8.37,0,0,1,1.466-5.326,4.557,4.557,0,0,1,3.713-1.834,4.4,4.4,0,0,1,3.58,1.8,8.223,8.223,0,0,1,1.435,5.218l-.013.609H91.571a5.823,5.823,0,0,0,1.054,3.428A2.849,2.849,0,0,0,94.91-1.574Q97.018-1.574,97.843-4.342ZM91.686-8.036h6.17a5.138,5.138,0,0,0-.749-2.615,2.724,2.724,0,0,0-2.3-1.257,2.721,2.721,0,0,0-2.146,1.047A4.594,4.594,0,0,0,91.686-8.036Z" transform="translate(14.595 20)" fill="#535353"/>
</svg>
