<svg xmlns="http://www.w3.org/2000/svg" width="24" height="20.075" viewBox="0 0 24 20.075">
  <path id="icon-role" d="M13.66,17.807a4.343,4.343,0,0,1-4.528-4.528A4.343,4.343,0,0,1,13.66,8.75a4.343,4.343,0,0,1,4.528,4.528,4.343,4.343,0,0,1-4.528,4.528ZM4,27.5V24.629a3.442,3.442,0,0,1,.543-1.9,3.337,3.337,0,0,1,1.509-1.268,27.052,27.052,0,0,1,3.713-1.3,14.883,14.883,0,0,1,3.894-.513h.694a10.462,10.462,0,0,0-.453,3.94,13.232,13.232,0,0,0,.906,3.909Zm17.721,1.328-.3-1.992a5.356,5.356,0,0,1-1.042-.438,3.838,3.838,0,0,1-.891-.649l-1.66.362-.755-1.268,1.419-1.328a4.747,4.747,0,0,1,0-1.509l-1.419-1.328.755-1.268,1.66.362a3.838,3.838,0,0,1,.891-.649,5.356,5.356,0,0,1,1.042-.438l.3-1.992h1.63l.3,1.992a5.356,5.356,0,0,1,1.042.438,3.838,3.838,0,0,1,.891.649l1.66-.362L28,20.675,26.581,22a4.747,4.747,0,0,1,0,1.509L28,24.841l-.755,1.268-1.66-.362a3.838,3.838,0,0,1-.891.649,5.356,5.356,0,0,1-1.042.438l-.3,1.992Zm.815-3.653a2.282,2.282,0,1,0-1.751-.664A2.367,2.367,0,0,0,22.536,25.173Z" transform="translate(-4 -8.75)" fill="#535353"/>
</svg>
