<svg xmlns="http://www.w3.org/2000/svg" width="24" height="24" viewBox="0 0 24 24">
  <path id="icon-settings" d="M13.24,28l-.6-3.78a8.039,8.039,0,0,1-1.2-.57,8.245,8.245,0,0,1-1.11-.75L6.79,24.52,4,19.6l3.24-2.37a3.567,3.567,0,0,1-.075-.615Q7.15,16.27,7.15,16t.015-.615a3.567,3.567,0,0,1,.075-.615L4,12.4,6.79,7.48,10.33,9.1a8.245,8.245,0,0,1,1.11-.75,6.208,6.208,0,0,1,1.2-.54L13.24,4h5.52l.6,3.78a9.726,9.726,0,0,1,1.215.555,5.164,5.164,0,0,1,1.1.765l3.54-1.62L28,12.4l-3.24,2.31a4.228,4.228,0,0,1,.075.645q.015.345.015.645t-.015.63a4.177,4.177,0,0,1-.075.63L28,19.6l-2.79,4.92L21.67,22.9a9.952,9.952,0,0,1-1.1.765,5.228,5.228,0,0,1-1.215.555L18.76,28ZM16,19.9A3.892,3.892,0,0,0,19.9,16,3.892,3.892,0,0,0,16,12.1,3.892,3.892,0,0,0,12.1,16,3.892,3.892,0,0,0,16,19.9Z" transform="translate(-4 -4)" fill="#535353"/>
</svg>
