<svg xmlns="http://www.w3.org/2000/svg" width="21.798" height="21.798" viewBox="0 0 21.798 21.798">
  <path id="arrows-fullscreen" d="M7.956,13.893a.683.683,0,0,0-.966,0l-5.6,5.6V15.708a.683.683,0,0,0-1.367,0V21.14a.683.683,0,0,0,.683.683H6.141a.683.683,0,0,0,0-1.367H2.358l5.6-5.6A.683.683,0,0,0,7.956,13.893Zm5.937,0a.683.683,0,0,1,.966,0l5.6,5.6V15.708a.683.683,0,0,1,1.367,0V21.14a.683.683,0,0,1-.683.683H15.708a.683.683,0,0,1,0-1.367h3.783l-5.6-5.6a.683.683,0,0,1,0-.966Zm0-5.937a.683.683,0,0,0,.966,0l5.6-5.6V6.141a.683.683,0,0,0,1.367,0V.708A.683.683,0,0,0,21.14.025H15.708a.683.683,0,0,0,0,1.367h3.783l-5.6,5.6a.683.683,0,0,0,0,.966Zm-5.937,0a.683.683,0,0,1-.966,0l-5.6-5.6V6.141a.683.683,0,1,1-1.367,0V.708A.683.683,0,0,1,.708.025H6.141a.683.683,0,1,1,0,1.367H2.358l5.6,5.6A.683.683,0,0,1,7.956,7.956Z" transform="translate(-0.025 -0.025)" fill="#fff" fill-rule="evenodd"/>
</svg>
